<svg width="240" height="234" viewBox="0 0 240 234" fill="none" xmlns="http://www.w3.org/2000/svg">
<path d="M42.5 1.88608e-05H197.5C203.083 -0.00524284 208.612 1.09046 213.77 3.22442C218.929 5.35838 223.616 8.48871 227.564 12.4362C231.511 16.3838 234.642 21.071 236.776 26.2297C238.91 31.3885 240.005 36.9174 240 42.5V191.5C240.005 197.083 238.91 202.612 236.776 207.77C234.642 212.929 231.511 217.616 227.564 221.564C223.616 225.511 218.929 228.642 213.77 230.776C208.612 232.91 203.083 234.005 197.5 234H42.5C36.9174 234.005 31.3885 232.91 26.2297 230.776C21.071 228.642 16.3838 225.511 12.4362 221.564C8.48871 217.616 5.35838 212.929 3.22442 207.77C1.09046 202.612 -0.00524284 197.083 1.88608e-05 191.5V42.5C-0.00524284 36.9174 1.09046 31.3885 3.22442 26.2297C5.35838 21.071 8.48871 16.3838 12.4362 12.4362C16.3838 8.48871 21.071 5.35838 26.2297 3.22442C31.3885 1.09046 36.9174 -0.00524284 42.5 1.88608e-05V1.88608e-05Z" fill="#4FB5E1"/>
<circle cx="120" cy="117" r="90" fill="white"/>
<path d="M98.9485 139.411C92.8864 133.705 89.3204 125.86 89.3204 116.945C89.3204 108.03 92.8864 100.185 98.5919 94.4797C103.584 89.4874 103.584 81.6424 98.5919 76.6501C93.5996 71.6577 85.7545 71.6577 80.7622 76.6501C70.7776 86.9913 64.3589 101.255 64.3589 116.945C64.3589 132.635 70.7776 146.899 81.1188 157.24C86.1111 162.233 93.9562 162.233 98.9485 157.24C103.584 152.248 103.584 144.403 98.9485 139.411Z" fill="#FAE501"/>
<path d="M98.9484 94.4797C104.654 88.4176 112.499 84.8516 121.414 84.8516C130.329 84.8516 138.174 88.4176 143.879 94.1231C148.872 99.1154 156.717 99.1154 161.709 94.1231C166.701 89.1308 166.701 81.2857 161.709 76.2934C151.368 66.3088 137.104 59.8901 121.414 59.8901C105.724 59.8901 91.46 66.3088 81.1187 76.65C76.1264 81.6423 76.1264 89.4873 81.1187 94.4797C86.1111 99.1154 93.9561 99.1154 98.9484 94.4797Z" fill="#4FB5E1"/>
<path d="M143.879 139.41C138.174 145.472 130.329 149.038 121.414 149.038C112.499 149.038 104.654 145.472 98.9484 139.767C93.9561 134.775 86.1111 134.775 81.1187 139.767C76.1264 144.759 76.1264 152.604 81.1187 157.597C91.46 167.581 105.724 174 121.414 174C137.104 174 151.368 167.581 161.709 157.24C166.701 152.248 166.701 144.403 161.709 139.41C156.717 134.775 148.872 134.775 143.879 139.41Z" fill="#F05751"/>
<path d="M90.0335 98.0455C96.9265 98.0455 102.514 92.4577 102.514 85.5648C102.514 78.6718 96.9265 73.084 90.0335 73.084C83.1406 73.084 77.5527 78.6718 77.5527 85.5648C77.5527 92.4577 83.1406 98.0455 90.0335 98.0455Z" fill="#0681B6"/>
<path d="M90.0335 160.806C96.9265 160.806 102.514 155.218 102.514 148.325C102.514 141.432 96.9265 135.844 90.0335 135.844C83.1406 135.844 77.5527 141.432 77.5527 148.325C77.5527 155.218 83.1406 160.806 90.0335 160.806Z" fill="#CD4739"/>
</svg>
