<svg width="232" height="42" viewBox="0 0 232 42" fill="none" xmlns="http://www.w3.org/2000/svg">
<path d="M232 5.79199H225.312V40.2382H232V5.79199Z" fill="black"/>
<path d="M197.476 14.9131H190.324L184.873 34.0885L179.576 14.9131H172.076L180.736 40.2355H188.816L197.476 14.9131Z" fill="black"/>
<path d="M144.937 40.24V34.1316H131.096V5.67773H123.944V40.24H144.937Z" fill="black"/>
<path d="M220.711 40.2476V22.3093C220.711 16.8968 217.618 14.1133 210.157 14.1133C201.11 14.1133 199.332 18.8298 198.984 22.4252H205.479C205.904 20.2989 207.296 19.1778 210.118 19.1778C212.708 19.1778 214.1 19.9896 214.1 21.9226C214.1 22.5799 213.868 23.3531 212.863 23.7783C211.162 24.4742 209.306 24.5515 207.296 24.8995C203.932 25.518 202.27 26.2139 200.994 27.1804C198.945 28.6109 198.095 30.6985 198.095 33.3661C198.095 37.3481 200.376 40.9435 206.136 40.9435C209.693 40.9435 212.244 39.629 214.255 37.3094V40.2476H220.711V40.2476ZM214.061 30.9305C214.061 32.5929 213.018 36.1496 208.108 36.1496C205.865 36.1496 204.744 35.0285 204.744 33.0181C204.744 31.0465 206.097 29.9253 208.494 29.4227C210.389 28.9975 212.631 28.6495 214.1 27.9536V30.9305H214.061Z" fill="black"/>
<path d="M170.144 40.2476V22.3093C170.144 16.8968 167.051 14.1133 159.59 14.1133C150.543 14.1133 148.765 18.8298 148.417 22.4252H154.912C155.337 20.2989 156.729 19.1778 159.551 19.1778C162.141 19.1778 163.533 19.9896 163.533 21.9226C163.533 22.5799 163.301 23.3531 162.296 23.7783C160.595 24.4742 158.739 24.5515 156.729 24.8995C153.365 25.518 151.703 26.2139 150.427 27.1804C148.378 28.6109 147.528 30.6985 147.528 33.3661C147.528 37.3481 149.809 40.9435 155.569 40.9435C159.126 40.9435 161.677 39.629 163.726 37.3094V40.2476H170.144V40.2476ZM163.494 30.9305C163.494 32.5929 162.45 36.1496 157.541 36.1496C155.337 36.1496 154.177 35.0285 154.177 33.0181C154.177 31.0465 155.53 29.9253 157.927 29.4227C159.822 28.9975 162.025 28.6495 163.494 27.9536V30.9305Z" fill="black"/>
<path d="M119.305 29.3454V27.2577C119.305 20.7242 116.406 14.1133 107.514 14.1133C96.4573 14.1133 94.7949 22.9665 94.7949 27.9923C94.7949 36.0336 99.0475 41.0981 107.244 41.0981C113.816 41.0981 118.223 37.2321 118.996 32.7862H112.153C111.573 34.0233 110.646 35.6857 107.089 35.6857C103.455 35.6857 101.831 32.9795 101.638 29.3841H119.305V29.3454ZM112.424 24.8995H101.676C101.947 22.3479 103.416 19.487 107.321 19.487C111.148 19.5257 112.153 22.3479 112.424 24.8995Z" fill="black"/>
<path d="M92.1657 22.1083C92.1657 13.2165 87.9518 5.67773 77.7842 5.67773H62.9773V40.2013H77.7455C86.5214 40.2399 92.1657 33.861 92.1657 22.1083ZM84.6657 22.6496C84.6657 28.7579 82.7327 34.3249 75.9285 34.3249H70.0908V11.5927H75.9285C82.7327 11.5927 84.6657 15.768 84.6657 22.6496Z" fill="black"/>
<path d="M30.1942 26.2824C30.9287 27.1716 32.7458 29.5299 32.7458 29.5299C32.7458 29.5299 30.9287 31.8882 30.1942 32.7774C29.2663 33.8985 27.8359 34.6331 26.2509 34.6331C23.4287 34.6331 21.1477 32.3521 21.1477 29.5299C21.1477 26.7077 23.4287 24.4268 26.2509 24.4268C27.8359 24.4268 29.2663 25.1613 30.1942 26.2824Z" fill="black"/>
<path d="M45.6582 40.1222C42.9134 39.8129 40.5551 38.4984 38.1968 36.0242C37.8489 35.6762 37.3849 35.1737 36.921 34.5938C36.2638 35.4056 35.6452 36.1402 35.22 36.6814C33.9055 38.2665 32.5911 39.4263 30.3875 40.1222V40.1995H45.6582V40.1222Z" fill="black"/>
<path d="M48.9839 19.4414H40.8266L36.9219 24.3126L41.0585 29.3384L48.9839 19.4414Z" fill="#1C1C1C"/>
<path d="M35.2581 22.1875L22.8482 0.692383L0 40.2418H22.3069V40.1644C18.4796 39.1206 14.7295 34.9067 14.7295 29.5329C14.7295 23.1926 19.8713 18.0122 26.2503 18.0122C29.807 18.0122 32.7839 19.5199 35.1421 22.3034L35.2581 22.1875Z" fill="black"/>
</svg>
