<svg width="240" height="234" viewBox="0 0 240 234" fill="none" xmlns="http://www.w3.org/2000/svg">
<path d="M197.5 0.500019L197.5 0.500019C203.017 0.494819 208.481 1.57762 213.579 3.68645C218.677 5.79528 223.309 8.88875 227.21 12.7898C231.111 16.6909 234.205 21.3229 236.314 26.4209C238.422 31.5188 239.505 36.9826 239.5 42.4995V42.5V191.5V191.5C239.505 197.017 238.422 202.481 236.314 207.579C234.205 212.677 231.111 217.309 227.21 221.21C223.309 225.111 218.677 228.205 213.579 230.314C208.481 232.422 203.017 233.505 197.5 233.5H197.5H42.5H42.4995C36.9826 233.505 31.5188 232.422 26.4209 230.314C21.3229 228.205 16.6909 225.111 12.7898 221.21C8.88875 217.309 5.79528 212.677 3.68645 207.579C1.57762 202.481 0.494819 197.017 0.500019 191.5V191.5L0.500019 42.5L0.500019 42.4995C0.494819 36.9826 1.57762 31.5188 3.68645 26.4209C5.79528 21.3229 8.88875 16.6909 12.7898 12.7898C16.6909 8.88875 21.3229 5.79528 26.4209 3.68645C31.5188 1.57762 36.9826 0.494819 42.4995 0.500019L42.5 1.88608e-05V0.500019L197.5 0.500019Z" fill="white" stroke="black"/>
<path d="M86.2768 137V98.7629H88.3536V104.778C88.5988 104.511 88.8253 104.228 89.0315 103.93C90.766 100.336 94.4244 98.0677 98.4185 98.1125C103.154 97.9715 107.001 99.722 109.263 103.93C110.701 106.544 111.493 109.464 111.572 112.446C111.65 115.428 111.014 118.385 109.714 121.071C107.608 125.787 102.404 128.131 96.8335 127.27C95.0998 127.123 93.4307 126.545 91.9784 125.588C90.5262 124.63 89.3371 123.325 88.5197 121.791V136.998L86.2768 137ZM88.3536 112.289L88.8188 116.779C89.6395 121.889 92.665 124.909 97.415 125.477C99.6456 125.843 101.934 125.425 103.891 124.295C105.848 123.164 107.352 121.391 108.146 119.278C109.994 114.881 109.857 109.903 107.781 105.609C106.933 103.714 105.491 102.147 103.672 101.143C101.853 100.139 99.7565 99.754 97.6991 100.046C95.7679 100.186 93.9284 100.923 92.4362 102.155C90.9439 103.388 89.8729 105.053 89.372 106.921C88.9298 108.689 88.5897 110.481 88.3536 112.287V112.289ZM153.976 117.486C153.661 120.178 152.378 122.664 150.365 124.482C148.352 126.301 145.746 127.327 143.033 127.37C134.323 127.808 130.236 122.032 129.587 115.367C129.135 111.747 129.723 108.074 131.283 104.776C132.369 102.513 134.147 100.655 136.361 99.4693C138.575 98.2837 141.11 97.833 143.597 98.1822C145.962 98.3829 148.204 99.3214 150.006 100.865C151.807 102.408 153.077 104.478 153.636 106.782C154.078 108.881 154.404 111.002 154.611 113.137H131.738C131.315 119.18 134.566 124.038 139.175 125.209C144.915 126.62 149.821 124.136 151.602 118.685C151.998 117.287 152.719 117.089 153.991 117.486H153.976ZM131.722 111.202H152.18C152.052 104.764 148.038 100.085 142.594 100.032C136.447 99.9327 131.989 104.424 131.722 111.202V111.202ZM158.205 117.627H160.21C160.284 119.102 160.763 120.529 161.596 121.749C162.429 122.97 163.584 123.938 164.932 124.546C166.624 125.307 168.467 125.676 170.323 125.627C172.178 125.579 173.999 125.112 175.649 124.264C176.549 123.859 177.303 123.189 177.808 122.343C178.314 121.497 178.547 120.516 178.477 119.533C178.529 118.585 178.27 117.647 177.739 116.859C177.208 116.072 176.435 115.478 175.536 115.169C173.33 114.35 170.984 113.898 168.736 113.178C166.397 112.513 164.11 111.678 161.893 110.68C158.271 108.914 158.047 102.038 162.147 99.8613C164.247 98.6781 166.609 98.0388 169.02 98.0017C171.43 97.9646 173.812 98.5309 175.947 99.6489C178.595 101.109 180.059 104.058 179.624 107.049H177.904C177.904 106.966 177.748 106.893 177.748 106.809C177.535 101.333 172.926 99.6207 167.979 100.102C166.483 100.268 165.066 100.719 163.737 101.386C162.938 101.751 162.272 102.354 161.832 103.113C161.391 103.872 161.198 104.749 161.278 105.622C161.28 106.496 161.553 107.349 162.059 108.062C162.565 108.775 163.28 109.314 164.106 109.604C166.266 110.396 168.559 110.904 170.793 111.524L176.193 112.934C177.42 113.337 178.496 114.102 179.279 115.128C180.061 116.154 180.513 117.394 180.576 118.682C181.008 121.577 179.529 124.423 176.914 125.742C172.192 128.41 164.415 127.705 160.951 124.332C159.178 122.551 158.19 120.134 158.21 117.625L158.205 117.627ZM206.02 107.051H204.139C204.139 106.797 204.04 106.553 204.011 106.359C203.981 104.951 203.468 103.596 202.556 102.522C201.645 101.447 200.391 100.718 199.006 100.457C196.392 99.7083 193.604 99.8424 191.074 100.839C190.074 101.124 189.193 101.726 188.564 102.553C187.934 103.381 187.59 104.389 187.582 105.428C187.546 106.448 187.864 107.449 188.482 108.262C189.1 109.075 189.981 109.65 190.974 109.89L199.571 112.093C200.5 112.316 201.416 112.594 202.312 112.926C205.053 113.922 206.914 116.464 206.997 119.369C207.038 120.791 206.648 122.192 205.877 123.389C205.106 124.585 203.99 125.521 202.677 126.072C200.682 126.977 198.52 127.456 196.328 127.478C194.137 127.5 191.966 127.065 189.953 126.2C188.297 125.487 186.9 124.285 185.95 122.755C184.999 121.225 184.541 119.441 184.636 117.643H186.474C187.165 120.97 189.452 123.741 192.591 125.052C195.729 126.363 199.313 126.041 202.167 124.196C203.024 123.751 203.735 123.07 204.216 122.235C204.697 121.399 204.928 120.443 204.882 119.48C204.925 118.532 204.656 117.595 204.118 116.813C203.579 116.03 202.8 115.445 201.898 115.145C199.692 114.325 197.346 113.889 195.098 113.153C192.746 112.499 190.445 111.673 188.213 110.683C184.678 108.946 184.395 102.126 188.426 99.9509C190.551 98.7181 192.96 98.0558 195.418 98.0284C197.876 98.0011 200.299 98.6097 202.451 99.795C203.683 100.529 204.674 101.604 205.304 102.89C205.934 104.177 206.176 105.618 206 107.039L206.02 107.051ZM82.8593 126.68C82.119 126.959 81.3018 126.958 80.562 126.677C79.8222 126.397 79.211 125.855 78.8437 125.155L71.5334 115.058L70.4734 113.648L61.9902 125.17C61.6445 125.84 61.0663 126.361 60.3637 126.637C59.6611 126.912 58.8821 126.923 58.1723 126.666L69.1011 112.024L58.9332 98.7928C60.4418 98.2485 62.1232 98.8392 62.9622 100.203L70.5382 110.424L78.1591 100.243C78.5075 99.5844 79.086 99.0766 79.7848 98.8163C80.4835 98.5559 81.2537 98.5612 81.9488 98.8309L78.003 104.059L72.6582 111.006C72.5099 111.139 72.3912 111.301 72.3099 111.482C72.2286 111.663 72.1866 111.86 72.1866 112.058C72.1866 112.257 72.2286 112.453 72.3099 112.635C72.3912 112.816 72.5099 112.978 72.6582 113.11L82.8377 126.68H82.8593ZM129.263 98.6517V100.643C127.833 100.549 126.399 100.756 125.054 101.25C123.709 101.744 122.482 102.514 121.454 103.511C120.425 104.507 119.617 105.708 119.082 107.036C118.547 108.363 118.297 109.788 118.347 111.219C118.347 115.869 118.347 120.519 118.347 125.17V126.751H116.325V98.7762H118.319V104.509C120.765 100.328 124.539 98.7762 129.276 98.6634L129.263 98.6517ZM32.0033 111.841L32.8938 107.449C35.3394 98.7646 45.308 95.1508 52.1663 100.53C56.1819 103.679 57.1838 108.141 56.9877 113.168H34.3642C33.9987 122.148 40.4865 127.571 48.7853 124.803C51.52 123.807 53.5785 121.538 54.2563 118.717C54.695 117.307 55.4193 117.064 56.7451 117.472C56.524 119.192 55.9155 120.838 54.9653 122.289C54.0151 123.739 52.7479 124.956 51.2591 125.847C48.7995 127.19 45.9775 127.722 43.1967 127.367C40.4159 127.012 37.8187 125.788 35.7764 123.87C33.7561 121.602 32.5366 118.735 32.2991 115.707C32.2991 115.209 32.1329 114.745 32.0166 114.297C32.0055 113.459 32 112.641 32 111.841H32.0033ZM34.3924 111.234H54.8511C54.7232 104.725 50.6095 100.107 45.1235 100.064C39.0162 99.9808 34.6466 104.497 34.3775 111.206L34.3924 111.234Z" fill="black"/>
</svg>
