<svg width="48" height="48" viewBox="0 0 48 48" fill="none" xmlns="http://www.w3.org/2000/svg">
<g clip-path="url(#clip0)">
<path d="M47.8222 21.0143C47.7308 20.2523 47.101 19.6766 46.3473 19.6766H43.6294H41.9489H40.7047C40.1506 19.6766 39.701 20.1347 39.701 20.6995V23.8944C39.701 24.616 40.2744 25.2003 40.9824 25.2003C41.7565 25.2003 42.3624 25.8974 42.2518 26.6789C41.7361 30.3333 40.1734 33.7622 37.72 36.5345C36.7776 37.5991 35.7293 38.5411 34.597 39.3497C33.6149 40.0504 32.265 39.3313 32.265 38.1099V9.88961C32.265 8.66823 33.6149 7.94912 34.597 8.64985C35.7293 9.45839 36.7776 10.4005 37.72 11.465C38.2862 12.1045 38.8042 12.7795 39.2731 13.4839C39.5507 13.9004 40.0087 14.1516 40.5016 14.1516H43.5572C44.692 14.1516 45.412 12.9008 44.8483 11.8975C41.4212 5.79916 35.4829 1.35344 28.4688 0.0254863C27.5552 -0.147246 26.709 0.563284 26.709 1.51025V46.4893C26.709 47.4387 27.5576 48.1468 28.4736 47.9728C39.5856 45.8657 47.9989 35.9342 47.9989 23.9998C48.0001 22.9891 47.94 21.9931 47.8222 21.0143Z" fill="#28786D"/>
<path d="M0.179109 21.0138C0.270467 20.2518 0.900353 19.6761 1.65405 19.6761H4.37194H6.05244H7.29659C7.85074 19.6761 8.30032 20.1342 8.30032 20.699V23.8939C8.30032 24.6155 7.72693 25.1998 7.01891 25.1998C6.24477 25.1998 5.63893 25.8969 5.74952 26.6785C6.26521 30.3328 7.8279 33.7617 10.2813 36.534C11.2238 37.5986 12.272 38.5406 13.4043 39.3492C14.3864 40.0499 15.7363 39.3308 15.7363 38.1094V9.88912C15.7363 8.66774 14.3864 7.94863 13.4043 8.64936C12.272 9.4579 11.2238 10.4 10.2813 11.4645C9.71516 12.104 9.19706 12.779 8.72826 13.4834C8.45058 13.8999 7.99259 14.1511 7.49974 14.1511H4.44166C3.3069 14.1511 2.58686 12.9003 3.15063 11.897C6.57775 5.79867 12.516 1.35295 19.5301 0.024998C20.4437 -0.147734 21.2899 0.562796 21.2899 1.50976V46.49C21.2899 47.4394 20.4413 48.1475 19.5253 47.9735C8.41331 45.8664 0 35.9349 0 23.9993C0 22.9886 0.0613057 21.9926 0.179109 21.0138Z" fill="#28786D"/>
</g>
<defs>
<clipPath id="clip0">
<rect width="48" height="48" fill="white"/>
</clipPath>
</defs>
</svg>
