<svg width="240" height="234" viewBox="0 0 240 234" fill="none" xmlns="http://www.w3.org/2000/svg">
<path d="M42.5 1.88608e-05H197.5C203.083 -0.00524284 208.612 1.09046 213.77 3.22442C218.929 5.35838 223.616 8.48871 227.564 12.4362C231.511 16.3838 234.642 21.071 236.776 26.2297C238.91 31.3885 240.005 36.9174 240 42.5V191.5C240.005 197.083 238.91 202.612 236.776 207.77C234.642 212.929 231.511 217.616 227.564 221.564C223.616 225.511 218.929 228.642 213.77 230.776C208.612 232.91 203.083 234.005 197.5 234H42.5C36.9174 234.005 31.3885 232.91 26.2297 230.776C21.071 228.642 16.3838 225.511 12.4362 221.564C8.48871 217.616 5.35838 212.929 3.22442 207.77C1.09046 202.612 -0.00524284 197.083 1.88608e-05 191.5V42.5C-0.00524284 36.9174 1.09046 31.3885 3.22442 26.2297C5.35838 21.071 8.48871 16.3838 12.4362 12.4362C16.3838 8.48871 21.071 5.35838 26.2297 3.22442C31.3885 1.09046 36.9174 -0.00524284 42.5 1.88608e-05V1.88608e-05Z" fill="#FBFBFB"/>
<g clip-path="url(#clip0)">
<path d="M119.55 45.3915L123.393 52.6095C124.257 53.9415 125.193 55.1205 126.296 56.2185C129.513 59.436 132.569 62.8065 135.314 66.4155C141.825 74.9655 146.217 84.4605 149.354 94.7295C151.235 101.003 152.256 107.438 152.333 113.945C152.648 133.398 145.979 150.102 132.533 163.985C130.337 166.181 127.988 168.215 125.468 170.024C124.136 170.024 123.506 169.002 122.957 168.062C121.935 166.338 121.31 164.372 120.995 162.414C120.522 160.061 120.212 157.707 120.365 155.277V154.179C120.257 153.945 119.082 45.945 119.55 45.3915Z" fill="#599636"/>
<path d="M119.55 45.153C119.393 44.838 119.235 45.0765 119.078 45.2295C119.154 46.8045 118.605 48.2085 117.746 49.5495C116.801 50.8815 115.55 51.903 114.294 53.001C107.319 59.04 101.829 66.3345 97.4325 74.493C91.5825 85.473 88.5675 97.2405 87.7125 109.629C87.321 114.098 89.1255 129.866 90.534 134.415C94.377 146.493 101.28 156.614 110.222 165.398C112.418 167.513 114.767 169.475 117.197 171.36C117.903 171.36 117.98 170.73 118.142 170.262C118.451 169.261 118.687 168.238 118.848 167.202L120.423 155.439L119.55 45.153Z" fill="#6CAC48"/>
<path d="M123.393 174.803C123.55 173.003 124.414 171.509 125.355 170.019C124.41 169.628 123.708 168.849 123.159 167.981C122.686 167.198 122.295 166.257 121.989 165.393C120.891 162.099 120.657 158.643 120.342 155.277V153.239C119.95 153.554 119.869 156.218 119.869 156.614C119.64 160.171 119.168 163.709 118.456 167.202C118.222 168.615 118.065 170.024 117.196 171.279C117.196 171.437 117.196 171.594 117.273 171.828C118.686 175.986 119.073 180.221 119.311 184.536V186.111C119.311 187.992 119.235 187.596 120.796 188.226C121.426 188.46 122.128 188.541 122.758 189.009C123.231 189.009 123.307 188.618 123.307 188.303L123.073 185.715V178.497C122.997 177.237 123.231 175.986 123.388 174.807L123.393 174.803Z" fill="#C2BFBF"/>
</g>
<defs>
<clipPath id="clip0">
<rect width="144" height="144" fill="white" transform="translate(48 45)"/>
</clipPath>
</defs>
</svg>
