<svg width="240" height="234" viewBox="0 0 240 234" fill="none" xmlns="http://www.w3.org/2000/svg">
<path d="M42.5 1.88608e-05H197.5C203.083 -0.00524284 208.612 1.09046 213.77 3.22442C218.929 5.35838 223.616 8.48871 227.564 12.4362C231.511 16.3838 234.642 21.071 236.776 26.2297C238.91 31.3885 240.005 36.9174 240 42.5V191.5C240.005 197.083 238.91 202.612 236.776 207.77C234.642 212.929 231.511 217.616 227.564 221.564C223.616 225.511 218.929 228.642 213.77 230.776C208.612 232.91 203.083 234.005 197.5 234H42.5C36.9174 234.005 31.3885 232.91 26.2297 230.776C21.071 228.642 16.3838 225.511 12.4362 221.564C8.48871 217.616 5.35838 212.929 3.22442 207.77C1.09046 202.612 -0.00524284 197.083 1.88608e-05 191.5V42.5C-0.00524284 36.9174 1.09046 31.3885 3.22442 26.2297C5.35838 21.071 8.48871 16.3838 12.4362 12.4362C16.3838 8.48871 21.071 5.35838 26.2297 3.22442C31.3885 1.09046 36.9174 -0.00524284 42.5 1.88608e-05V1.88608e-05Z" fill="white"/>
<path d="M70.1101 89.5577H105.402V92.3627H73.3451V113.474H103.49V116.279H73.3451V139.457H105.769V142.262H70.1101V89.5577ZM108.563 89.5577H112.313L128.929 112.736L145.913 89.5577L169.014 60.116L131.061 115.172L150.619 142.262H146.722L128.929 117.608L111.063 142.262H107.24L126.944 115.172L108.563 89.5577ZM152.016 92.3627V89.5577H192.233V92.3627H173.705V142.262H170.47V92.3627H152.016ZM25.959 89.5577H30.0028L85.7646 173L62.7209 142.262L29.3411 93.5438L29.194 142.262H25.959V89.5577ZM191.907 138.611C191.246 138.611 190.751 138.099 190.751 137.437C190.751 136.775 191.246 136.263 191.907 136.263C192.576 136.263 193.064 136.775 193.064 137.437C193.064 138.099 192.576 138.611 191.907 138.611ZM195.086 135.523H196.817C196.841 136.46 197.525 137.09 198.533 137.09C199.658 137.09 200.295 136.413 200.295 135.144V127.108H202.058V135.152C202.058 137.437 200.736 138.753 198.548 138.753C196.495 138.753 195.086 137.476 195.086 135.523ZM204.363 135.42H206.11C206.259 136.499 207.314 137.185 208.832 137.185C210.249 137.185 211.287 136.452 211.287 135.444C211.287 134.577 210.626 134.057 209.123 133.703L207.66 133.348C205.606 132.867 204.67 131.875 204.67 130.204C204.67 128.18 206.322 126.832 208.801 126.832C211.106 126.832 212.79 128.18 212.892 130.094H211.177C211.012 129.046 210.099 128.392 208.777 128.392C207.384 128.392 206.456 129.062 206.456 130.086C206.456 130.898 207.054 131.363 208.533 131.709L209.784 132.017C212.113 132.56 213.073 133.506 213.073 135.215C213.073 137.39 211.389 138.753 208.698 138.753C206.181 138.753 204.489 137.453 204.363 135.42Z" fill="black"/>
</svg>
