<svg width="240" height="234" viewBox="0 0 240 234" fill="none" xmlns="http://www.w3.org/2000/svg">
<path d="M197.5 0.500019L197.5 0.500019C203.017 0.494819 208.481 1.57762 213.579 3.68645C218.677 5.79528 223.309 8.88875 227.21 12.7898C231.111 16.6909 234.205 21.3229 236.314 26.4209C238.422 31.5188 239.505 36.9826 239.5 42.4995V42.5V191.5V191.5C239.505 197.017 238.422 202.481 236.314 207.579C234.205 212.677 231.111 217.309 227.21 221.21C223.309 225.111 218.677 228.205 213.579 230.314C208.481 232.422 203.017 233.505 197.5 233.5H197.5H42.5H42.4995C36.9826 233.505 31.5188 232.422 26.4209 230.314C21.3229 228.205 16.6909 225.111 12.7898 221.21C8.88875 217.309 5.79528 212.677 3.68645 207.579C1.57762 202.481 0.494819 197.017 0.500019 191.5V191.5L0.500019 42.5L0.500019 42.4995C0.494819 36.9826 1.57762 31.5188 3.68645 26.4209C5.79528 21.3229 8.88875 16.6909 12.7898 12.7898C16.6909 8.88875 21.3229 5.79528 26.4209 3.68645C31.5188 1.57762 36.9826 0.494819 42.4995 0.500019L42.5 1.88608e-05V0.500019L197.5 0.500019Z" fill="white" stroke="black"/>
<path d="M110.808 141.762H108.222L127.348 115.466L127.561 115.174L127.35 114.88L109.537 90.0577H112.056L128.523 113.027L128.925 113.588L129.333 113.032L146.312 89.8599L159.415 73.1594L130.65 114.888L130.45 115.179L130.656 115.465L149.641 141.762H146.978L129.335 117.315L128.93 116.755L128.524 117.314L110.808 141.762ZM73.3451 139.957H105.269V141.762H70.6101V90.0577H104.902V91.8627H73.3451H72.8451V92.3627V113.474V113.974H73.3451H102.99V115.779H73.3451H72.8451V116.279V139.457V139.957H73.3451ZM170.47 91.8627H152.516V90.0577H191.733V91.8627H173.705H173.205V92.3627V141.762H170.97V92.3627V91.8627H170.47ZM29.7356 90.0577L75.0989 157.94L63.1274 141.971L29.7536 93.2612L28.8459 91.9365L28.8411 93.5423L28.6955 141.762H26.459V90.0577H29.7356ZM207.778 132.862L207.774 132.861C206.797 132.633 206.155 132.297 205.757 131.878C205.372 131.472 205.17 130.939 205.17 130.204C205.17 129.34 205.517 128.64 206.122 128.146C206.736 127.646 207.648 127.332 208.801 127.332C210.679 127.332 211.981 128.284 212.313 129.594H211.567C211.194 128.496 210.102 127.892 208.777 127.892C208.007 127.892 207.315 128.077 206.8 128.451C206.273 128.834 205.956 129.404 205.956 130.086C205.956 130.644 206.175 131.11 206.632 131.466C207.054 131.796 207.66 132.018 208.417 132.196C208.418 132.196 208.418 132.196 208.419 132.196L209.665 132.502L209.671 132.503C210.8 132.767 211.518 133.112 211.953 133.537C212.368 133.941 212.573 134.464 212.573 135.215C212.573 136.162 212.213 136.899 211.581 137.411C210.936 137.932 209.965 138.253 208.698 138.253C207.522 138.253 206.585 137.949 205.938 137.452C205.436 137.066 205.09 136.549 204.94 135.92H205.716C206.108 137.079 207.37 137.685 208.832 137.685C209.621 137.685 210.342 137.481 210.88 137.101C211.424 136.715 211.787 136.138 211.787 135.444C211.787 134.856 211.551 134.367 211.081 133.991C210.641 133.639 210.014 133.399 209.239 133.216C209.239 133.216 209.239 133.216 209.238 133.216L207.778 132.862ZM191.907 138.111C191.532 138.111 191.251 137.832 191.251 137.437C191.251 137.042 191.532 136.763 191.907 136.763C192.288 136.763 192.564 137.04 192.564 137.437C192.564 137.835 192.288 138.111 191.907 138.111ZM200.795 135.144V127.608H201.558V135.152C201.558 136.199 201.256 136.96 200.767 137.459C200.278 137.956 199.541 138.253 198.548 138.253C197.625 138.253 196.888 137.967 196.387 137.503C195.991 137.138 195.719 136.639 195.623 136.023H196.381C196.476 136.414 196.676 136.759 196.968 137.027C197.374 137.399 197.924 137.59 198.533 137.59C199.197 137.59 199.787 137.387 200.205 136.931C200.616 136.481 200.795 135.856 200.795 135.144Z" fill="black" stroke="black"/>
</svg>
