<svg width="240" height="234" viewBox="0 0 240 234" fill="none" xmlns="http://www.w3.org/2000/svg">
<path d="M42.5 1.88608e-05H197.5C203.083 -0.00524284 208.612 1.09046 213.77 3.22442C218.929 5.35838 223.616 8.48871 227.564 12.4362C231.511 16.3838 234.642 21.071 236.776 26.2297C238.91 31.3885 240.005 36.9174 240 42.5V191.5C240.005 197.083 238.91 202.612 236.776 207.77C234.642 212.929 231.511 217.616 227.564 221.564C223.616 225.511 218.929 228.642 213.77 230.776C208.612 232.91 203.083 234.005 197.5 234H42.5C36.9174 234.005 31.3885 232.91 26.2297 230.776C21.071 228.642 16.3838 225.511 12.4362 221.564C8.48871 217.616 5.35838 212.929 3.22442 207.77C1.09046 202.612 -0.00524284 197.083 1.88608e-05 191.5V42.5C-0.00524284 36.9174 1.09046 31.3885 3.22442 26.2297C5.35838 21.071 8.48871 16.3838 12.4362 12.4362C16.3838 8.48871 21.071 5.35838 26.2297 3.22442C31.3885 1.09046 36.9174 -0.00524284 42.5 1.88608e-05V1.88608e-05Z" fill="#3D3D3D"/>
<path d="M113.448 41.0816C117.348 38.8732 122.321 38.8634 126.123 41.0816L184.35 73.9049C187.992 75.9524 190.429 80.0133 190.395 84.2107V150.023C190.42 154.396 187.743 158.545 183.902 160.553L125.987 193.225C124.006 194.32 121.768 194.864 119.506 194.802C117.243 194.739 115.039 194.072 113.122 192.87L95.7421 182.827C94.5575 182.12 93.2266 181.56 92.3881 180.414C93.1291 179.419 94.4454 179.293 95.5179 178.854C97.9359 178.084 100.149 176.904 102.372 175.656C102.933 175.266 103.62 175.412 104.156 175.763L118.976 184.333C120.034 184.943 121.107 184.138 122.014 183.627L178.88 151.534C179.582 151.193 179.972 150.452 179.914 149.682V84.5032C179.992 83.6257 179.49 82.8262 178.695 82.4703L120.926 49.9394C120.593 49.7092 120.198 49.5854 119.794 49.5846C119.389 49.5837 118.993 49.7057 118.66 49.9346L60.9736 82.5337C60.1936 82.8896 59.6574 83.6793 59.7549 84.5568V149.736C59.6866 150.506 60.0961 151.232 60.803 151.564L76.2178 160.266C79.1135 161.826 82.6674 162.703 85.8556 161.557C87.2508 161.032 88.4519 160.092 89.298 158.864C90.1441 157.637 90.5946 156.18 90.5893 154.689L90.6039 89.8998C90.5356 88.9394 91.4424 88.1448 92.3735 88.2423H99.7835C100.759 88.2179 101.524 89.2514 101.392 90.2167L101.378 155.415C101.383 161.206 99.0035 167.505 93.6459 170.347C87.0451 173.76 78.8844 173.043 72.3616 169.762L55.7866 160.597C51.8866 158.647 49.2688 154.435 49.2931 150.067V84.2546C49.3094 82.1156 49.8974 80.0198 50.9963 78.1846C52.0952 76.3494 53.665 74.8415 55.5429 73.8172L113.448 41.0816ZM130.238 86.7018C138.657 86.2143 147.671 86.3801 155.246 90.5287C161.111 93.7072 164.363 100.376 164.47 106.899C164.304 107.776 163.388 108.264 162.549 108.201C160.112 108.196 157.664 108.235 155.217 108.186C154.179 108.225 153.579 107.269 153.448 106.353C152.746 103.233 151.044 100.147 148.109 98.6407C143.605 96.3836 138.379 96.4957 133.465 96.5444C129.877 96.7394 126.021 97.0466 122.984 99.1526C120.644 100.752 119.942 104.028 120.775 106.572C121.555 108.439 123.715 109.039 125.475 109.595C135.625 112.247 146.374 112.032 156.334 115.479C160.453 116.902 164.485 119.671 165.898 123.986C167.741 129.768 166.937 136.68 162.827 141.321C159.493 145.143 154.637 147.171 149.786 148.351C143.337 149.789 136.648 149.823 130.101 149.18C123.944 148.478 117.538 146.859 112.785 142.667C108.719 139.137 106.74 133.638 106.935 128.334C106.984 127.437 107.876 126.813 108.739 126.886H116.051C117.036 126.818 117.758 127.666 117.806 128.593C118.26 131.518 119.376 134.686 121.97 136.393C126.971 139.62 133.246 139.396 138.969 139.488C143.712 139.279 149.036 139.215 152.911 136.076C154.959 134.287 155.558 131.298 155.008 128.724C154.408 126.55 152.083 125.541 150.133 124.824C140.114 121.656 129.243 122.806 119.323 119.218C115.296 117.795 111.401 115.104 109.855 110.965C107.696 105.115 108.685 97.8656 113.234 93.3806C117.621 88.9199 124.056 87.1991 130.15 86.5848L130.238 86.7018Z" fill="#8CC84B"/>
</svg>
