<svg width="207" height="78" viewBox="0 0 207 78" fill="none" xmlns="http://www.w3.org/2000/svg">
<path d="M105.36 40.0009C105.36 29.423 113.538 21.3053 124.423 21.3053C135.307 21.3053 143.483 29.423 143.483 40.0009C143.483 50.578 135.307 58.6965 124.423 58.6965C113.538 58.6965 105.36 50.5764 105.36 40.0009ZM136.993 40.0009C136.993 32.7818 131.636 27.1195 124.424 27.1195C117.213 27.1195 111.857 32.7778 111.857 40.0009C111.857 47.224 117.224 52.8823 124.425 52.8823C131.625 52.8823 136.993 47.2175 136.993 40.0009ZM149.003 33.483H155.135V36.937L155.235 36.9873C156.974 34.5807 159.58 33.2263 162.544 33.2263C163.113 33.219 163.681 33.2872 164.231 33.4294V39.2428C163.564 39.0722 162.877 38.9885 162.187 38.9926C159.274 38.9926 156.922 40.2455 155.182 42.6505V58.1383H149.001L149.003 33.483ZM169.852 19.8501H176.033V34.7359L176.134 34.7871C178.127 33.5675 180.429 32.924 182.778 32.9313C189.318 32.9313 194.837 37.8445 194.837 45.413C194.837 53.1325 189.166 58.6965 181.398 58.6965C179.235 58.6827 177.097 58.2399 175.114 57.3925L169.849 58.2943L169.852 19.8501ZM181.2 53.6338C185.85 53.6338 188.617 50.0751 188.617 45.7136C188.617 41.4033 185.91 38.1452 181.463 38.1452C179.515 38.1573 177.62 38.7708 176.047 39.9002V52.3306C177.633 53.165 179.4 53.6119 181.2 53.6338ZM203.221 21.5539C205.331 21.584 207.02 23.2805 207 25.3507C206.979 27.4202 205.258 29.085 203.147 29.0752C201.037 29.0655 199.332 27.3852 199.331 25.315C199.347 23.2228 201.089 21.5393 203.221 21.5531V21.5539ZM200.103 33.4773H206.285V58.1327H200.103V33.4773Z" fill="#4A4D4E"/>
<path d="M86.9077 13.3168C87.1047 13.9181 87.0401 14.5729 86.7263 15.1254C85.9207 16.5392 83.8747 17.1599 82.4431 16.5229C81.5927 16.1305 81.0504 15.2912 81.0504 14.3698C81.0272 13.3907 81.4876 12.4604 82.2866 11.8738C83.2752 11.1564 84.6746 11.1824 85.7087 11.8007C86.2817 12.1476 86.7081 12.6863 86.9077 13.3168Z" fill="#FF6C56"/>
<path d="M49.4257 2.43581C48.3957 1.89794 47.0187 1.95238 45.3561 2.83963C43.3623 3.88044 40.2863 4.99031 36.7689 5.42663C26.0298 5.4835 15.8454 10.1188 8.86782 18.126C1.88943 26.1348 -1.19404 36.7225 0.419732 47.1371C2.77456 36.0221 10.9486 27.9386 27.8224 22.2803C40.5703 18.0049 47.8724 13.5248 49.776 8.06806C50.753 5.269 50.503 2.99563 49.4257 2.43581Z" fill="#FFA7D6"/>
<path d="M71.2741 0.380155C72.8788 -0.364907 75.617 -0.01147 76.6313 1.41122C78.0339 3.36366 77.2109 5.47372 75.8331 6.57222C73.773 8.21997 70.4594 7.81534 69.0832 6.12372C67.5564 4.23303 68.6096 1.61922 71.2741 0.380155ZM65.6553 11.2709C66.9304 10.291 67.1548 8.05828 65.7745 6.93459C64.8223 6.16272 62.3773 6.12616 60.2112 7.10441C55.9752 9.02841 52.6582 9.09259 49.5201 8.74566C49.145 9.57359 48.6681 10.3544 48.1009 11.0694C47.8947 14.0594 45.4819 17.5499 42.0697 19.4195C46.9549 20.6325 51.0717 22.9904 54.2099 26.5045C54.8425 23.7501 56.3652 20.6439 58.1246 19.0701C59.7806 14.893 63.0074 12.809 65.6553 11.2709ZM7.16374 58.2131C9.48379 54.9209 13.2355 52.9343 16.6162 52.6272C12.8165 45.8631 12.7958 37.665 16.5607 30.8822C13.7604 31.4428 7.63321 35.0902 3.96186 38.2833C2.81839 40.1017 1.38016 42.7455 0.419678 47.1363C0.591902 48.312 0.827054 49.4779 1.12431 50.6284C1.9995 54.0108 3.36819 57.2519 5.1873 60.25C5.74206 59.4806 6.40777 58.7949 7.16374 58.2131Z" fill="#1CCED3"/>
<path d="M84.1114 36.8866C82.9315 38.7196 81.283 39.463 79.911 39.1372C78.12 38.7131 77.8029 36.9151 78.2194 34.8716C78.6806 32.6104 80.6007 32.0669 82.3395 32.6665C84.0783 33.2677 85.2019 35.1934 84.1114 36.8866Z" fill="#3525BC"/>
<path d="M57.9764 51.7424C59.196 51.1362 61.2313 50.5114 62.4559 50.1621C71.0008 45.5747 75.6823 37.4765 74.023 32.1327C73.166 29.3686 70.904 30.2737 70.076 27.3308C69.4434 25.0883 71.2401 22.5882 75.2468 21.1355C77.1446 20.4481 78.919 18.1544 77.773 15.4057C76.743 12.9203 72.0251 11.8592 63.4818 15.7056C58.7771 17.8254 55.9635 20.0037 54.2106 26.5094C56.9041 29.5562 58.5378 32.53 59.4585 36.1026C60.8909 41.6072 60.3486 46.5367 57.9756 51.7424H57.9764ZM27.8678 61.5923C25.6181 58.6015 23.4753 56.7417 18.8973 55.8731C13.608 54.8786 8.00162 56.3379 5.18311 60.2541C8.26327 65.5264 12.7146 69.9009 18.0833 72.9315C18.3077 71.8436 18.7408 70.8077 19.3585 69.8782C20.4531 65.6865 24.2561 62.4308 27.8678 61.5923Z" fill="#FF6C56"/>
<path d="M76.9154 42.2621C75.7752 41.4999 74.1846 41.9509 73.2059 43.2127C66.7699 51.4978 60.9077 48.8279 55.1597 53.5396C50.6636 57.2226 51.7069 60.913 46.8896 64.1484C41.6252 67.6828 29.9264 61.6061 23.2113 66.0821C20.286 68.0273 18.5695 70.4843 18.0835 72.9275C32.1214 81.0915 49.9549 79.2641 61.9692 68.4311C67.7378 63.292 74.0695 55.5513 77.1083 46.496C77.6937 44.754 78.1201 43.0664 76.9154 42.2629V42.2621Z" fill="#3525BC"/>
</svg>
