<svg width="240" height="234" viewBox="0 0 240 234" fill="none" xmlns="http://www.w3.org/2000/svg">
<path d="M42.5 1.88608e-05H197.5C203.083 -0.00524284 208.612 1.09046 213.77 3.22442C218.929 5.35838 223.616 8.48871 227.564 12.4362C231.511 16.3838 234.642 21.071 236.776 26.2297C238.91 31.3885 240.005 36.9174 240 42.5V191.5C240.005 197.083 238.91 202.612 236.776 207.77C234.642 212.929 231.511 217.616 227.564 221.564C223.616 225.511 218.929 228.642 213.77 230.776C208.612 232.91 203.083 234.005 197.5 234H42.5C36.9174 234.005 31.3885 232.91 26.2297 230.776C21.071 228.642 16.3838 225.511 12.4362 221.564C8.48871 217.616 5.35838 212.929 3.22442 207.77C1.09046 202.612 -0.00524284 197.083 1.88608e-05 191.5V42.5C-0.00524284 36.9174 1.09046 31.3885 3.22442 26.2297C5.35838 21.071 8.48871 16.3838 12.4362 12.4362C16.3838 8.48871 21.071 5.35838 26.2297 3.22442C31.3885 1.09046 36.9174 -0.00524284 42.5 1.88608e-05V1.88608e-05Z" fill="#FF6C37"/>
<g clip-path="url(#clip0)">
<path d="M194.398 59.5431C183.034 44.8276 167.562 33.8126 149.937 27.8913C132.313 21.9699 113.328 21.4081 95.3842 26.277C77.4405 31.1458 61.3436 41.2266 49.1293 55.2444C36.9151 69.2622 29.1323 86.5873 26.7651 105.029C24.3979 123.47 27.5526 142.199 35.8304 158.847C44.1082 175.495 57.1371 189.315 73.2695 198.558C89.4018 207.801 107.913 212.052 126.461 210.774C145.01 209.496 162.763 202.746 177.475 191.378C218.542 159.641 226.12 100.624 194.395 59.5431H194.398Z" fill="#FF6C37"/>
<path d="M151.706 82.8897L112.07 122.84L100.869 111.325C139.879 72.3148 143.795 75.8397 151.708 82.8897H151.706Z" fill="white"/>
<path d="M112.068 123.933C111.717 123.924 111.382 123.785 111.128 123.542L99.8481 112.262C99.5941 111.999 99.4521 111.648 99.4521 111.282C99.4521 110.917 99.5941 110.565 99.8481 110.303C138.309 71.8418 143.558 73.6425 152.644 81.8675C152.952 82.1143 153.126 82.4903 153.114 82.8868C153.173 83.2687 153.026 83.6594 152.723 83.9061L113.087 123.545C112.808 123.8 112.447 123.938 112.068 123.935V123.933ZM102.824 111.322L112.068 120.566L149.668 82.9661C148.37 81.3392 146.517 80.2479 144.465 79.9011C142.413 79.5542 140.305 79.9761 138.544 81.0861C131.729 84.1411 120.763 93.4618 102.824 111.322V111.322Z" fill="#FF6C37"/>
<path d="M123.429 133.885L112.619 122.84L152.255 83.6711C162.909 94.0904 147.085 111.48 123.429 133.882V133.885Z" fill="white"/>
<path d="M123.429 135.295C123.082 135.267 122.753 135.13 122.489 134.904L111.444 124.094C111.278 123.692 111.278 123.241 111.444 122.84C111.326 122.511 111.326 122.149 111.444 121.82L151.079 82.1847C151.652 81.6472 152.542 81.6472 153.115 82.1847C155.715 84.5759 157.139 87.9775 157.031 91.5054C157.031 102.08 144.966 115.396 124.445 134.825C124.171 135.096 123.81 135.262 123.426 135.295H123.429ZM114.654 122.84L123.505 131.687C139.171 116.882 154.134 101.607 154.211 91.2675C154.296 89.0754 153.571 86.9287 152.175 85.2368L114.654 122.84Z" fill="#FF6C37"/>
<path d="M101.178 111.56L109.013 119.394C109.063 119.438 109.103 119.492 109.13 119.553C109.158 119.614 109.172 119.68 109.172 119.746C109.172 119.813 109.158 119.879 109.13 119.94C109.103 120.001 109.063 120.055 109.013 120.099L92.4834 123.624C91.799 123.771 91.1028 123.442 90.7738 122.825C90.4448 122.208 90.5682 121.444 91.0734 120.96L100.708 111.404C100.708 111.404 101.023 111.404 101.178 111.56V111.56Z" fill="white"/>
<path d="M92.0938 125.19C91.5716 125.183 91.0597 125.043 90.6072 124.782C90.1546 124.521 89.7764 124.149 89.5088 123.7C88.8919 122.534 89.1122 121.098 90.0581 120.175L99.6138 110.54C99.9584 110.232 100.404 110.062 100.867 110.062C101.329 110.062 101.775 110.232 102.12 110.54L109.954 118.375C110.418 118.815 110.6 119.482 110.424 120.099C110.248 120.716 109.731 121.206 109.093 121.353L92.5638 124.878L92.0938 125.19ZM100.868 113.284L92.0174 122.135L106.667 119L100.868 113.284Z" fill="#FF6C37"/>
<path d="M172.778 60.8761C167.108 55.4065 158.202 55.1774 152.256 60.3386C146.311 65.4997 145.294 74.3592 149.924 80.7336C154.553 87.108 163.281 88.894 170.037 84.8461L159.383 74.1918L172.778 60.8761Z" fill="white"/>
<path d="M162.203 88.4475C158.946 88.4057 155.773 87.4064 153.08 85.574C150.387 83.7416 148.292 81.1571 147.057 78.1427C144.531 71.9798 145.929 64.9063 150.582 60.1711C153.719 57.0925 157.938 55.3677 162.332 55.3677C166.727 55.3677 170.946 57.0925 174.082 60.1711C174.382 60.4237 174.552 60.7968 174.552 61.1904C174.552 61.3841 174.509 61.5753 174.428 61.7512C174.347 61.927 174.229 62.0834 174.082 62.2097L161.392 74.1947L171.027 83.674C171.183 83.8231 171.301 84.0081 171.369 84.213C171.437 84.4178 171.454 84.6362 171.418 84.849C171.395 85.0544 171.327 85.2522 171.219 85.4283C171.111 85.6045 170.965 85.7547 170.792 85.8683C168.204 87.4863 165.228 88.3791 162.177 88.4533L162.203 88.4475ZM162.203 58.0532C156.622 58.0825 151.628 61.4401 149.534 66.5719C147.439 71.7037 148.579 77.611 152.492 81.5532C156.475 85.557 162.479 86.7085 167.687 84.4525L158.443 75.2082C158.135 74.9614 157.961 74.5854 157.973 74.1888C157.985 73.8217 158.155 73.478 158.443 73.2489L170.663 60.9495C168.234 59.0872 165.264 58.0708 162.203 58.0502V58.0532Z" fill="#FF6C37"/>
<path d="M173.014 61.1111L159.619 74.4268L170.273 85.0811C171.346 84.4656 172.344 83.7293 173.249 82.8868C179.054 76.7181 178.948 67.1183 173.014 61.1111Z" fill="white"/>
<path d="M170.035 86.2561C169.859 86.2657 169.683 86.2355 169.52 86.1679C169.357 86.1002 169.212 85.9969 169.095 85.8654L158.44 75.2111C158.132 74.9644 157.959 74.5884 157.97 74.1918C157.982 73.8246 158.152 73.4809 158.44 73.2518L171.756 60.1711C171.885 59.9772 172.059 59.8182 172.264 59.7081C172.469 59.5981 172.698 59.5405 172.931 59.5405C173.164 59.5405 173.393 59.5981 173.598 59.7081C173.803 59.8182 173.977 59.9772 174.106 60.1711C175.669 61.7028 176.911 63.5309 177.759 65.5485C178.607 67.5661 179.043 69.7326 179.043 71.9211C179.043 74.1096 178.607 76.2761 177.759 78.2937C176.911 80.3113 175.669 82.1395 174.106 83.6711C173.184 84.6492 172.129 85.4927 170.972 86.1768C170.68 86.3236 170.343 86.3521 170.032 86.2561H170.035ZM161.419 74.1947L170.27 83.0454C170.878 82.6187 171.455 82.1474 171.994 81.6354C174.596 79.0407 176.061 75.5193 176.068 71.8447C176.074 68.5563 174.876 65.3796 172.699 62.9147L161.419 74.1947Z" fill="#FF6C37"/>
<path d="M153.351 84.5347C151.147 82.4667 147.719 82.4667 145.516 84.5347L110.034 119.937L115.909 125.892L153.43 92.9918C154.59 91.8843 155.239 90.348 155.222 88.7441C155.204 87.1403 154.528 85.6157 153.351 84.5318V84.5347Z" fill="white"/>
<path d="M115.594 127.305C115.243 127.296 114.908 127.157 114.654 126.914L108.7 120.96C108.446 120.697 108.304 120.346 108.304 119.98C108.304 119.615 108.446 119.263 108.7 119L144.185 83.6711C146.999 80.8629 151.558 80.8629 154.369 83.6711C155.779 85.0811 156.543 87.0052 156.484 88.9968C156.402 90.9767 155.526 92.8391 154.055 94.1668L116.534 127.067C116.261 127.261 115.926 127.343 115.594 127.302V127.305ZM111.443 119.938L115.359 123.933L152.175 91.8932C153.085 91.1001 153.629 89.9662 153.664 88.7589C153.699 87.5516 153.223 86.3707 152.333 85.5482C150.621 83.8444 147.857 83.8444 146.144 85.5482L111.443 119.938Z" fill="#FF6C37"/>
<path d="M82.5388 160.281C82.4386 160.417 82.3845 160.582 82.3845 160.751C82.3845 160.92 82.4386 161.085 82.5388 161.221L84.1045 168.036C84.2396 168.85 83.8489 169.661 83.1292 170.092C82.7802 170.297 82.3754 170.385 81.9732 170.344C81.5709 170.303 81.1919 170.136 80.8908 169.866L70.1602 159.526L103.609 125.812H115.204L123.038 133.647C110.817 144.332 97.1909 153.293 82.5388 160.281V160.281Z" fill="white"/>
<path d="M81.8332 171.796C80.9461 171.778 80.0707 171.414 79.4832 170.777L69.2225 160.516C68.9141 160.269 68.7408 159.893 68.7525 159.497C68.7643 159.13 68.9346 158.786 69.2225 158.557L102.904 124.796C103.092 124.596 103.339 124.459 103.609 124.405H115.28C115.584 124.298 115.915 124.298 116.22 124.405L124.054 132.24C124.356 132.519 124.503 132.93 124.445 133.335C124.45 133.53 124.411 133.723 124.329 133.9C124.247 134.077 124.126 134.233 123.975 134.355L123.349 134.904C111.079 145.133 97.5793 153.791 83.1639 160.675L84.6532 167.02C84.7683 167.509 84.7727 168.018 84.6661 168.51C84.5595 169.001 84.3445 169.462 84.0368 169.86C83.7292 170.258 83.3366 170.582 82.8878 170.809C82.439 171.035 81.9452 171.159 81.4425 171.17L81.8332 171.796ZM72.2775 159.497L81.5189 168.817C81.605 168.894 81.7164 168.937 81.8317 168.937C81.9471 168.937 82.0585 168.894 82.1446 168.817C82.2022 168.737 82.2332 168.641 82.2332 168.543C82.2332 168.444 82.2022 168.348 82.1446 168.268L80.5789 161.453C80.3263 160.446 80.8139 159.397 81.7539 158.947C95.7817 152.155 108.933 143.685 120.92 133.723L114.495 127.299H104L72.2775 159.497Z" fill="#FF6C37"/>
<path d="M62.0935 167.566L69.9278 159.732L81.9921 171.796L62.8015 170.465C62.1258 170.415 61.553 169.937 61.3915 169.273C61.2299 168.609 61.5148 167.922 62.0965 167.569L62.0935 167.566Z" fill="white"/>
<path d="M82.2243 172.971L63.11 171.64C61.9761 171.535 61.0009 170.759 60.6014 169.722C60.2019 168.685 60.4457 167.454 61.23 166.626L69.0643 158.792C69.3272 158.538 69.6784 158.396 70.044 158.396C70.4095 158.396 70.7607 158.538 71.0236 158.792L83.0086 170.777C83.3494 171.247 83.3494 171.875 83.0086 172.342C82.8265 172.636 82.5504 172.857 82.2243 172.968V172.971ZM63.11 168.585L78.7757 169.605L70.16 161.535L63.11 168.585Z" fill="#FF6C37"/>
<path d="M116.298 126.758L100.474 129.188L109.639 120.102L116.298 126.758Z" fill="white"/>
<path d="M100.475 130.671C99.9374 130.686 99.4468 130.377 99.2206 129.887C99.0538 129.66 98.9639 129.386 98.9639 129.104C98.9639 128.822 99.0538 128.548 99.2206 128.321L108.306 119.156C108.879 118.619 109.769 118.619 110.342 119.156L117.004 125.812C117.137 126.024 117.208 126.268 117.208 126.517C117.208 126.767 117.137 127.011 117.004 127.222C116.939 127.48 116.801 127.713 116.606 127.893C116.412 128.074 116.17 128.195 115.909 128.242L100.243 130.671H100.475ZM109.64 122.132L104.549 127.222L113.324 125.892L109.64 122.132Z" fill="#FF6C37"/>
<path d="M116.298 126.752L105.253 128.162C104.958 128.23 104.648 128.2 104.371 128.077C104.094 127.955 103.864 127.746 103.714 127.482C103.565 127.218 103.505 126.914 103.542 126.613C103.58 126.312 103.713 126.031 103.923 125.812L109.642 120.093L116.298 126.752Z" fill="white"/>
<path d="M104.939 129.655C103.896 129.646 102.942 129.076 102.433 128.165C102.134 127.629 102.018 127.01 102.103 126.402C102.188 125.794 102.469 125.23 102.903 124.796L108.623 119.077C109.196 118.539 110.086 118.539 110.658 119.077L117.318 125.736C117.516 125.924 117.655 126.165 117.719 126.43C117.783 126.695 117.768 126.973 117.677 127.23C117.586 127.488 117.422 127.713 117.206 127.879C116.989 128.045 116.729 128.144 116.457 128.165L105.491 129.575L104.939 129.655ZM104.939 126.755L113.244 125.736L109.563 122.055L104.863 126.755H104.939ZM173.089 70.1204C172.942 69.8732 172.708 69.6888 172.434 69.6021C172.159 69.5155 171.863 69.5327 171.6 69.6504C171.47 69.7161 171.355 69.8071 171.261 69.9181C171.167 70.0291 171.097 70.1578 171.054 70.2966C170.965 70.5757 170.995 70.8782 171.13 71.1397C171.679 72.2941 171.526 73.6601 170.739 74.6647C170.534 74.8586 170.445 75.1259 170.445 75.4079C170.448 75.6834 170.553 75.9481 170.739 76.1511C170.94 76.2304 171.164 76.2304 171.365 76.1511C171.547 76.1969 171.739 76.1919 171.918 76.1364C172.098 76.081 172.259 75.9774 172.384 75.8367C173.029 75.047 173.438 74.0909 173.562 73.0789C173.687 72.0669 173.523 71.0402 173.089 70.1174V70.1204Z" fill="#FF6C37"/>
</g>
<defs>
<clipPath id="clip0">
<rect width="188" height="188" fill="white" transform="translate(26 23)"/>
</clipPath>
</defs>
</svg>
