<svg width="240" height="234" viewBox="0 0 240 234" fill="none" xmlns="http://www.w3.org/2000/svg">
<path d="M42.5 1.88608e-05H197.5C203.083 -0.00524284 208.612 1.09046 213.77 3.22442C218.929 5.35838 223.616 8.48871 227.564 12.4362C231.511 16.3838 234.642 21.071 236.776 26.2297C238.91 31.3885 240.005 36.9174 240 42.5V191.5C240.005 197.083 238.91 202.612 236.776 207.77C234.642 212.929 231.511 217.616 227.564 221.564C223.616 225.511 218.929 228.642 213.77 230.776C208.612 232.91 203.083 234.005 197.5 234H42.5C36.9174 234.005 31.3885 232.91 26.2297 230.776C21.071 228.642 16.3838 225.511 12.4362 221.564C8.48871 217.616 5.35838 212.929 3.22442 207.77C1.09046 202.612 -0.00524284 197.083 1.88608e-05 191.5V42.5C-0.00524284 36.9174 1.09046 31.3885 3.22442 26.2297C5.35838 21.071 8.48871 16.3838 12.4362 12.4362C16.3838 8.48871 21.071 5.35838 26.2297 3.22442C31.3885 1.09046 36.9174 -0.00524284 42.5 1.88608e-05V1.88608e-05Z" fill="#20232A"/>
<path d="M179.421 88.1496C177.512 87.4888 175.529 86.8688 173.49 86.2814C173.824 84.9108 174.134 83.5647 174.403 82.2349C178.899 60.428 175.962 42.8634 165.927 37.0792C156.308 31.5316 140.579 37.3158 124.695 51.1358C123.17 52.4656 121.636 53.8688 120.102 55.3454C119.083 54.3664 118.063 53.4282 117.051 52.5227C100.408 37.7482 83.7249 31.5153 73.7066 37.3158C64.0962 42.8797 61.2571 59.3919 65.2955 80.0566C65.6871 82.0554 66.1439 84.095 66.6579 86.1671C64.3002 86.8361 62.0159 87.554 59.8376 88.3128C40.3232 95.1167 27.8574 105.779 27.8574 116.842C27.8574 128.264 41.2369 139.726 61.5672 146.677C63.1743 147.223 64.8386 147.745 66.5518 148.235C65.9971 150.478 65.5076 152.673 65.1078 154.819C61.249 175.124 64.2594 191.245 73.8453 196.776C83.7412 202.487 100.351 196.613 116.529 182.475C117.81 181.357 119.091 180.174 120.372 178.926C122.036 180.533 123.7 182.051 125.356 183.47C141.02 196.956 156.496 202.397 166.066 196.85C175.953 191.123 179.168 173.803 174.991 152.73C174.673 151.123 174.297 149.475 173.881 147.802C175.048 147.46 176.19 147.101 177.308 146.734C198.437 139.734 212.192 128.41 212.192 116.834C212.2 105.739 199.335 95.0025 179.421 88.1496ZM129.876 57.075C143.484 45.2292 156.202 40.5546 162.003 43.8994C168.179 47.4564 170.577 61.8149 166.702 80.644C166.457 81.8433 166.18 83.067 165.87 84.3071C158.226 82.5449 149.921 81.2314 141.224 80.4156C136.158 73.2037 130.912 66.6445 125.642 60.9664C127.053 59.604 128.464 58.3069 129.876 57.075ZM86.466 117.03C88.8482 112.069 91.467 107.093 94.3061 102.165C97.1533 97.2297 100.147 92.4653 103.247 87.9375C108.73 87.5214 114.351 87.3093 120.029 87.3093C125.74 87.3093 131.369 87.5296 136.843 87.9456C139.894 92.449 142.864 97.1889 145.727 102.125C148.615 107.117 151.275 112.061 153.673 116.915C151.283 121.851 148.632 126.844 145.752 131.837C142.872 136.83 139.91 141.602 136.908 146.106C131.434 146.497 125.789 146.701 120.029 146.701C114.294 146.701 108.713 146.522 103.337 146.171C100.213 141.61 97.1941 136.83 94.3305 131.878C91.4752 126.95 88.8401 121.974 86.466 117.03ZM82.289 126.289C83.937 129.479 85.6828 132.661 87.5184 135.826C89.3867 139.049 91.3202 142.214 93.3026 145.29C87.2655 144.613 81.5711 143.707 76.3172 142.557C77.9407 137.311 79.9476 131.845 82.289 126.289ZM82.2809 107.77C79.9884 102.329 78.0223 96.9849 76.4233 91.8208C81.6853 90.646 87.29 89.6833 93.1394 88.9491C91.2059 91.9676 89.3132 95.0678 87.4858 98.2331C85.6584 101.399 83.9207 104.58 82.2809 107.77ZM152.572 135.777C154.448 132.522 156.235 129.259 157.916 126.012C160.379 131.625 162.46 137.058 164.108 142.23C158.764 143.446 152.996 144.433 146.91 145.159C148.827 142.124 150.72 138.992 152.572 135.777ZM157.842 107.77C156.17 104.597 154.399 101.399 152.539 98.176C150.712 95.027 148.844 91.9513 146.935 88.9573C152.817 89.6997 158.454 90.6868 163.741 91.8942C162.158 96.9931 160.175 102.312 157.842 107.77ZM120.119 66.5956C123.749 70.5279 127.388 74.9251 130.969 79.6895C127.363 79.5182 123.716 79.4285 120.037 79.4285C116.39 79.4285 112.768 79.5182 109.187 79.6814C112.76 74.9659 116.423 70.5768 120.119 66.5956ZM77.6552 44.136C83.8228 40.5627 97.4633 45.6535 111.83 58.4211C112.752 59.2369 113.674 60.0935 114.596 60.9746C109.236 66.7261 103.949 73.269 98.891 80.4074C90.2188 81.207 81.9219 82.5041 74.294 84.2337C73.8126 82.3002 73.3884 80.4075 73.0294 78.5555C69.5622 60.8441 71.8628 47.4891 77.6552 44.136ZM68.6648 140.648C67.0984 140.199 65.5728 139.726 64.1125 139.22C55.1222 136.144 47.6982 132.155 42.6156 127.799C38.047 123.883 35.7383 119.999 35.7383 116.842C35.7383 110.128 45.7484 101.57 62.4401 95.7449C64.4633 95.0351 66.5845 94.3743 68.7872 93.7461C71.0959 101.252 74.1226 109.092 77.7694 117.03C74.0574 125.082 70.9899 133.052 68.6648 140.648ZM111.34 176.544C104.186 182.793 97.0227 187.231 90.7083 189.458C85.0302 191.465 80.5105 191.522 77.7775 189.948C71.9607 186.595 69.5459 173.648 72.8418 156.279C73.2171 154.288 73.6658 152.249 74.1879 150.16C81.7424 151.833 90.0964 153.032 99.0297 153.758C104.129 160.937 109.472 167.529 114.857 173.305C113.674 174.439 112.507 175.524 111.34 176.544ZM120.331 167.635C116.594 163.605 112.874 159.151 109.236 154.362C112.768 154.5 116.366 154.574 120.021 154.574C123.782 154.574 127.494 154.492 131.149 154.329C127.567 159.208 123.945 163.67 120.331 167.635ZM168.154 178.592C167.053 184.506 164.85 188.455 162.117 190.038C156.308 193.399 143.884 189.026 130.488 177.498C128.954 176.177 127.404 174.765 125.854 173.272C131.051 167.594 136.239 160.986 141.306 153.652C150.214 152.861 158.634 151.572 166.27 149.801C166.645 151.319 166.979 152.803 167.265 154.264C169.109 163.58 169.378 172.008 168.154 178.592ZM174.836 139.261C173.824 139.595 172.796 139.913 171.736 140.232C169.402 132.848 166.253 124.992 162.403 116.875C166.082 108.953 169.109 101.203 171.377 93.8603C173.261 94.4069 175.089 94.978 176.859 95.5899C193.918 101.464 204.32 110.144 204.32 116.834C204.32 123.964 193.086 133.216 174.836 139.261Z" fill="#53C1DE"/>
<path d="M120.029 100.379C129.117 100.379 136.492 107.746 136.492 116.842C136.492 125.93 129.125 133.305 120.029 133.305C110.932 133.305 103.565 125.938 103.565 116.842C103.565 107.746 110.932 100.379 120.029 100.379Z" fill="#53C1DE"/>
</svg>
