<?xml version="1.0" encoding="utf-8"?>
<!-- Generator: Adobe Illustrator 25.2.1, SVG Export Plug-In . SVG Version: 6.00 Build 0)  -->
<svg version="1.1" id="Layer_1" xmlns="http://www.w3.org/2000/svg" xmlns:xlink="http://www.w3.org/1999/xlink" x="0px" y="0px"
	 viewBox="0 0 3030.2 1839.1" style="enable-background:new 0 0 3030.2 1839.1;" xml:space="preserve">
<style type="text/css">
	.st0{fill:#2D2C2F;}
	.st1{fill:#F09220;}
</style>
<g id="Layer_1-2">
	<rect class="st0" width="3030.2" height="1839.1"/>
	<path class="st1" d="M1515.1,471.1c-247.7,0-448.5,200.8-448.5,448.4s200.8,448.5,448.5,448.5s448.4-200.8,448.4-448.5
		S1762.8,471.1,1515.1,471.1z M1393.4,1138.5H1336c-2.2,0.1-4.3-0.8-5.8-2.3l-0.2-0.2l-0.3-0.3c-1.5-1.5-2.4-3.6-2.3-5.8v-70.9
		c0-6.9,9.8-12,14.6-6l57.4,70.7C1403.9,1129.5,1401.3,1138.5,1393.4,1138.5L1393.4,1138.5z M1536.9,1138.5h-50.7
		c-2.7,0.1-5.3-1.2-6.8-3.5c-0.2-0.2-0.4-0.4-0.6-0.7l-30.3-44.4l-104.8-153.6c-6.4-9.3-18-20.8-19.3-32.4c-2.8-23.6,0-49.1,0-72.9
		c0-8.9,11.3-11.1,15.9-4.3c8.6,12.6,17.2,25.1,25.7,37.7l178.2,261.1C1548,1131.2,1543,1138.5,1536.9,1138.5z M1706.5,1135.2
		c-1.5,2.2-4,3.4-6.7,3.3c-23.6,0-47.6,1.4-71.1,0c-9.8-0.6-12.6-7.4-17.7-14.8L1453.6,893l-123.9-181.6c-3.7-5.5,1.2-12.9,7.4-12.9
		h191.8c38.6,0,75.3,8.7,106.2,32.9c85.2,66.8,81.5,215-10.2,273.7l82.3,120.5C1709.5,1128.6,1709.1,1132.7,1706.5,1135.2z"/>
</g>
</svg>
