<svg width="232" height="95" viewBox="0 0 232 95" fill="none" xmlns="http://www.w3.org/2000/svg">
<g clip-path="url(#clip0_1203:160)">
<path fill-rule="evenodd" clip-rule="evenodd" d="M44.7734 4.28197C44.7734 3.15943 44.7734 2.05531 44.7734 0.951172C42.756 1.02221 40.7454 1.22503 38.7539 1.55842C38.7539 2.46013 38.7539 3.39867 38.7539 4.28197C38.7728 16.7064 35.4783 28.9055 29.2178 39.5935C22.9574 50.2814 13.9627 59.062 3.18262 65.0093C3.9157 66.9049 4.77233 68.7492 5.74681 70.53C17.5621 64.0866 27.4315 54.5245 34.3063 42.8598C41.1812 31.195 44.8046 17.8636 44.7916 4.28197" fill="#1C1C1C"/>
<path fill-rule="evenodd" clip-rule="evenodd" d="M26.2057 5.58789C24.0278 6.64586 21.936 7.87651 19.9498 9.26834C19.2669 16.2298 17.1521 22.9694 13.7414 29.0544C10.3307 35.1394 5.69955 40.4349 0.145596 44.6006C0.145596 45.668 0.0183105 46.7536 0.0183105 47.8394C0.0183105 49.2196 0.018294 50.5997 0.200151 51.9431C7.98225 46.9921 14.4307 40.1669 18.9687 32.0776C23.5068 23.9884 25.9933 14.8873 26.2057 5.58789Z" fill="#1C1C1C"/>
<path fill-rule="evenodd" clip-rule="evenodd" d="M32.1707 92.5938C41.4206 95.5876 51.3631 95.5876 60.6132 92.5938C51.3669 89.5755 41.4169 89.5755 32.1707 92.5938Z" fill="#1C1C1C"/>
<path fill-rule="evenodd" clip-rule="evenodd" d="M20.968 87.1648C23.0618 88.5676 25.2632 89.7984 27.5512 90.8452C39.6247 85.8405 53.1587 85.8405 65.2321 90.8452C67.5222 89.8024 69.724 88.5714 71.8153 87.1648C63.9438 83.0528 55.2139 80.9072 46.3553 80.9072C37.4967 80.9072 28.7669 83.0528 20.8953 87.1648" fill="#1C1C1C"/>
<path fill-rule="evenodd" clip-rule="evenodd" d="M16.2765 12.1758C8.03116 19.3172 2.53304 29.1675 0.74585 40C8.99876 32.854 14.5191 23.0099 16.3492 12.1758" fill="#1C1C1C"/>
<path fill-rule="evenodd" clip-rule="evenodd" d="M29.4611 4.28193C29.4678 14.6267 26.8139 24.7952 21.76 33.7875C16.7061 42.7798 9.42641 50.2864 0.636719 55.569C0.973591 57.6733 1.45361 59.7515 2.07338 61.7889C12.2081 56.0924 20.6519 47.7559 26.5294 37.644C32.4068 27.5321 35.5037 16.0131 35.4987 4.28193C35.4987 3.60105 35.4987 2.92014 35.4987 2.23926C33.4585 2.71102 31.4533 3.32592 29.4974 4.07949V4.20831" fill="#1C1C1C"/>
<path fill-rule="evenodd" clip-rule="evenodd" d="M92.1288 40C90.3075 29.1627 84.7856 19.3157 76.5254 12.1758C78.3481 23.0125 83.8698 32.859 92.1288 40Z" fill="#1C1C1C"/>
<path fill-rule="evenodd" clip-rule="evenodd" d="M92.6019 51.9802C92.7291 50.6369 92.7836 49.2567 92.7836 47.8766C92.7836 46.7908 92.7836 45.705 92.6746 44.6378C87.1181 40.473 82.484 35.1781 79.0702 29.0931C75.6565 23.0082 73.5383 16.268 72.8522 9.30544C70.8747 7.90981 68.7887 6.67895 66.6145 5.625C66.8174 14.9292 69.2975 24.0374 73.8328 32.1337C78.3681 40.23 84.817 47.0617 92.6019 52.0171" fill="#1C1C1C"/>
<path fill-rule="evenodd" clip-rule="evenodd" d="M90.7285 61.7885C91.3483 59.7511 91.8283 57.6729 92.1651 55.5686C83.3733 50.2868 76.091 42.7811 71.034 33.7889C65.9771 24.7967 63.3195 14.6278 63.3227 4.28155C63.3227 4.28155 63.3227 4.18953 63.3227 4.15273C61.3668 3.39917 59.3615 2.78427 57.3213 2.3125C57.3213 2.99338 57.3213 3.67424 57.3213 4.35513C57.3163 16.0863 60.4133 27.6053 66.2906 37.7172C72.1681 47.8291 80.612 56.1656 90.7467 61.8621" fill="#1C1C1C"/>
<path fill-rule="evenodd" clip-rule="evenodd" d="M54.048 4.28197C54.048 3.38026 54.048 2.44173 54.048 1.55842C52.0625 1.225 50.0579 1.02218 48.0467 0.951172C48.0467 2.05531 48.0467 3.15943 48.0467 4.28197C48.0296 17.8644 51.6514 31.1975 58.5267 42.863C65.4019 54.5283 75.2736 64.0897 87.0914 70.53C88.0597 68.7487 88.9102 66.9044 89.6374 65.0093C78.8598 59.0589 69.8675 50.2778 63.6073 39.5905C57.3472 28.9033 54.0511 16.7055 54.0662 4.28197" fill="#1C1C1C"/>
<path fill-rule="evenodd" clip-rule="evenodd" d="M7.41992 73.2711C8.52689 74.992 9.74175 76.6393 11.0571 78.2029C21.7205 71.6545 33.9549 68.1919 46.4283 68.1919C58.9017 68.1919 71.1361 71.6545 81.7995 78.2029C83.1145 76.639 84.3294 74.9918 85.4367 73.2711C73.7199 65.9554 60.2234 62.0811 46.4556 62.0811C32.6878 62.0811 19.1913 65.9554 7.47448 73.2711" fill="#1C1C1C"/>
<path fill-rule="evenodd" clip-rule="evenodd" d="M13.2573 80.7431C14.7455 82.2766 16.3376 83.7032 18.022 85.0124C26.7195 80.1834 36.4801 77.6517 46.4008 77.6517C56.3216 77.6517 66.0821 80.1834 74.7797 85.0124C76.4582 83.7031 78.0442 82.2764 79.5261 80.7431C69.4983 74.7209 58.0526 71.543 46.3918 71.543C34.7309 71.543 23.2853 74.7209 13.2573 80.7431Z" fill="#1C1C1C"/>
<path d="M101.913 78.9394L103.731 67.4012H106.023C106.425 67.3473 106.834 67.38 107.222 67.4974C107.611 67.6148 107.971 67.814 108.278 68.0822C108.555 68.4022 108.752 68.7847 108.853 69.1977C108.955 69.6106 108.957 70.0421 108.86 70.456C108.797 70.9612 108.609 71.442 108.313 71.8537C108.018 72.2656 107.624 72.5951 107.168 72.8116C107.486 72.8683 107.789 72.9896 108.059 73.1683C108.329 73.3471 108.56 73.5795 108.739 73.8513C108.917 74.1232 109.04 74.4289 109.098 74.75C109.156 75.071 109.149 75.4006 109.078 75.7191C108.934 76.674 108.424 77.5332 107.659 78.1113C106.847 78.7029 105.858 78.9952 104.859 78.9394H101.913ZM102.749 78.2402H104.568C105.393 78.329 106.227 78.1757 106.968 77.7985C107.338 77.5811 107.657 77.2865 107.905 76.9342C108.153 76.582 108.323 76.1803 108.405 75.7558C108.504 75.363 108.473 74.9479 108.315 74.5752C108.157 74.2025 107.882 73.8931 107.532 73.6949C106.796 73.3857 105.998 73.2594 105.204 73.3268H103.604L102.749 78.2402ZM103.622 72.6275H104.877C105.613 72.7251 106.36 72.5765 107.005 72.2042C107.321 72.0067 107.587 71.7375 107.782 71.4183C107.978 71.099 108.098 70.7382 108.132 70.3641C108.205 70.026 108.182 69.6741 108.067 69.3486C107.951 69.0231 107.747 68.7373 107.478 68.5238C106.92 68.2253 106.288 68.0974 105.659 68.1558H104.404L103.622 72.6275Z" fill="#1C1C1C"/>
<path d="M110.406 67.4014H111.206L113.661 73.2349L117.916 67.4014H118.717L113.897 74.0077L113.133 78.9396H112.406L113.17 74.0077L110.406 67.4014Z" fill="#1C1C1C"/>
<path d="M122.59 74.7983L122.772 74.9639C123.417 75.6136 124.281 75.9944 125.191 76.0313C125.591 76.0313 126.282 75.8657 126.354 75.332C126.427 74.7983 125.899 74.7799 125.536 74.6879L124.717 74.5407C123.154 74.2463 121.936 73.2894 122.226 71.4859C122.514 70.2216 123.235 69.1008 124.259 68.3201C125.283 67.5394 126.547 67.1486 127.827 67.2166C129.06 67.1836 130.274 67.5371 131.301 68.2287L129.701 71.1731C129.068 70.6336 128.273 70.3287 127.446 70.3083C127.081 70.3083 126.536 70.437 126.463 70.9155C126.391 71.3939 126.9 71.4123 127.19 71.4859L128.1 71.6884C129.791 72.0933 130.919 73.0502 130.61 75.0008C130.315 76.2471 129.592 77.3465 128.569 78.1019C127.545 78.8573 126.289 79.2192 125.027 79.1229C123.556 79.1176 122.108 78.7515 120.808 78.0555L122.59 74.7983Z" fill="#1C1C1C"/>
<path d="M143.631 78.5709L140.157 79.9327L139.576 78.5342C138.562 78.9349 137.481 79.135 136.393 79.123C135.636 79.194 134.873 79.0828 134.167 78.7984C133.46 78.514 132.83 78.0644 132.328 77.4866C131.826 76.9087 131.466 76.2189 131.278 75.4734C131.09 74.728 131.08 73.9481 131.246 73.1975C131.544 71.4811 132.443 69.931 133.779 68.8321C135.116 67.7333 136.8 67.1596 138.52 67.2168C142.158 67.2168 144.468 69.4251 143.885 73.1975C143.696 74.4894 143.14 75.6977 142.286 76.6756L143.631 78.5709ZM136.793 74.3017L139.448 73.8048C139.556 73.6038 139.629 73.3862 139.666 73.1607C139.728 72.8877 139.725 72.6042 139.662 72.3318C139.599 72.0593 139.474 71.8053 139.299 71.5888C139.123 71.3723 138.902 71.1991 138.65 71.0825C138.398 70.9658 138.125 70.9088 137.847 70.9157C137.24 70.9114 136.65 71.1343 136.194 71.5417C135.737 71.9491 135.446 72.5124 135.374 73.124C135.309 73.3875 135.304 73.6624 135.356 73.9288C135.409 74.1951 135.519 74.4463 135.679 74.6644C135.838 74.8825 136.045 75.0622 136.281 75.1904C136.518 75.3185 136.779 75.3921 137.048 75.4058C137.205 75.4241 137.364 75.4241 137.52 75.4058L136.793 74.3017Z" fill="#1C1C1C"/>
<path d="M145.686 67.4014H149.868L148.65 75.2222H152.124L151.56 78.9027H143.94L145.686 67.4014Z" fill="#1C1C1C"/>
<path d="M153.779 67.4014H157.925L156.106 78.9396H151.96L153.779 67.4014Z" fill="#1C1C1C"/>
<path d="M106.023 34.1479L106.314 34.4056C107.345 35.4237 108.711 36.0201 110.151 36.0801C110.787 36.0801 111.878 35.8225 111.969 34.9943C112.06 34.1663 111.26 34.0927 110.678 33.9639L109.387 33.7246C106.895 33.2646 104.968 31.7371 105.422 28.8665C106.095 24.5235 110.387 22.1128 114.315 22.1128C116.253 22.0681 118.158 22.627 119.771 23.7138L117.261 28.3879C116.238 27.5252 114.956 27.0386 113.624 27.0077C113.061 27.0077 112.188 27.2287 112.06 27.9832C111.933 28.7377 112.769 28.756 113.242 28.8665L114.679 29.216C117.37 29.8418 119.134 31.3507 118.662 34.4607C117.971 38.822 113.697 40.9751 109.787 40.9751C107.456 40.9675 105.161 40.3932 103.095 39.3005L106.023 34.1479Z" fill="#1C1C1C"/>
<path d="M120.335 22.3896H134.138L133.228 28.3336L129.592 28.168L127.609 40.6998H121.044L123.009 28.168L119.371 28.3336L120.335 22.3896Z" fill="#1C1C1C"/>
<path d="M135.32 40.6998H128.373L137.466 22.3896H144.74L148.378 40.6998H141.412L141.175 38.418H136.229L135.32 40.6998ZM140.775 34.075L140.503 30.8363C140.503 30.0633 140.503 29.272 140.503 28.4808H140.249L138.176 34.0014L140.775 34.075Z" fill="#1C1C1C"/>
<path d="M151.524 22.3896H159.471C163.544 22.3896 166.745 24.1378 166.017 28.7567C165.921 29.9108 165.452 31.0007 164.683 31.8587C163.914 32.7165 162.887 33.2948 161.762 33.5046V33.6518C162.137 33.9574 162.452 34.332 162.689 34.756L165.69 40.6998H158.124L156.143 34.8296H156.034L155.125 40.6998H148.687L151.524 22.3896ZM156.707 30.505H157.143C158.216 30.505 159.325 30.3394 159.543 28.9777C159.761 27.6158 158.797 27.395 157.725 27.395H157.143L156.707 30.505Z" fill="#1C1C1C"/>
<path d="M106.769 44.7119H114.697C118.771 44.7119 121.972 46.4416 121.244 51.0606C121.155 52.2142 120.69 53.3053 119.924 54.164C119.158 55.0228 118.132 55.6009 117.007 55.8084V55.9556C117.384 56.2651 117.703 56.6389 117.952 57.0598L120.953 63.0037H113.37L111.406 57.1334H111.279L110.369 63.0037H103.95L106.769 44.7119ZM111.951 52.8089H112.406C113.479 52.8089 114.588 52.6432 114.788 51.2815C114.988 49.9196 114.061 49.6988 112.97 49.6988H112.461L111.951 52.8089Z" fill="#1C1C1C"/>
<path d="M123.736 44.7119H135.902L135.138 49.6988H129.682L129.391 51.4471H134.447L133.702 56.2132H128.646L128.391 58.0535H134.12L133.32 63.0589H120.972L123.736 44.7119Z" fill="#1C1C1C"/>
<path d="M137.721 44.7119H146.031C150.25 44.7119 153.033 46.8833 152.342 51.4287C152.159 53.138 151.342 54.7134 150.056 55.837C148.77 56.9607 147.111 57.5489 145.413 57.4831H142.049L141.194 63.0037H134.865L137.721 44.7119ZM142.776 52.8824H143.43C144.577 52.8824 145.849 52.6801 146.086 51.2079C146.322 49.7357 144.977 49.6988 143.904 49.6988H143.285L142.776 52.8824Z" fill="#1C1C1C"/>
<path d="M170.728 44.7108L169.054 55.5312C168.217 60.8678 164.526 63.2969 159.471 63.2969C154.415 63.2969 151.487 60.8678 152.323 55.5312L153.997 44.7108H160.561L158.962 54.8687C158.743 56.3042 158.579 57.5739 160.325 57.5739C162.071 57.5739 162.344 56.3042 162.562 54.8687L164.145 44.6924L170.728 44.7108Z" fill="#1C1C1C"/>
<path d="M172.509 44.7119H180.148C183.658 44.7119 187.113 45.5583 186.44 49.7726C186.337 50.6028 186.006 51.3874 185.485 52.0378C184.966 52.6881 184.275 53.1782 183.494 53.4529V53.5817C184.386 53.8406 185.145 54.4343 185.619 55.2417C186.092 56.0489 186.243 57.0087 186.04 57.9247C185.44 61.6972 181.802 62.9853 178.639 62.9853H169.691L172.509 44.7119ZM176.438 58.624H177.147C178.22 58.624 179.784 58.6239 180.002 57.0965C180.221 55.5692 178.566 55.606 177.511 55.606H176.856L176.438 58.624ZM178.093 51.7415C179.057 51.7415 180.148 51.6495 180.348 50.3798C180.548 49.1101 179.348 49.1284 178.384 49.1284H177.929L177.493 51.7415H178.093Z" fill="#1C1C1C"/>
<path d="M189.114 44.7119H195.697L193.751 57.1334H199.207L198.297 63.0037H186.24L189.114 44.7119Z" fill="#1C1C1C"/>
<path d="M201.971 44.7119H208.535L205.681 63.0037H199.115L201.971 44.7119Z" fill="#1C1C1C"/>
<path d="M222.757 52.1274C222.315 51.5765 221.762 51.1273 221.134 50.81C220.508 50.4926 219.82 50.3144 219.119 50.2872C218.131 50.3129 217.182 50.6816 216.43 51.3315C215.679 51.9816 215.171 52.8733 214.992 53.8572C214.911 54.3053 214.933 54.7657 215.054 55.2043C215.174 55.6429 215.391 56.0481 215.688 56.3898C215.986 56.7314 216.355 57.0006 216.77 57.1771C217.184 57.3535 217.633 57.4328 218.083 57.4088C219.594 57.3634 221.036 56.7613 222.139 55.7158L220.865 62.5615C219.313 63.0612 217.694 63.3097 216.065 63.2975C214.915 63.3477 213.769 63.1312 212.716 62.665C211.662 62.1987 210.727 61.4947 209.983 60.607C209.24 59.7192 208.706 58.6711 208.423 57.5427C208.141 56.4144 208.117 55.2355 208.353 54.0964C208.794 51.4655 210.122 49.0704 212.112 47.3189C214.101 45.5674 216.629 44.5678 219.265 44.4904C220.728 44.4818 222.182 44.7373 223.557 45.245L222.757 52.1274Z" fill="#1C1C1C"/>
</g>
<defs>
<clipPath id="clip0_1203:160">
<rect width="232" height="93.9048" fill="white" transform="translate(0 0.942383)"/>
</clipPath>
</defs>
</svg>
