<svg width="104" height="104" viewBox="0 0 104 104" fill="none" xmlns="http://www.w3.org/2000/svg">
<path fill-rule="evenodd" clip-rule="evenodd" d="M12.1694 46.6417V48.0629H14.5213L19.0956 56.6331H24.7271L29.3014 48.0414L31.6533 48.0198V46.6202H24.6408V48.0198H26.4964L23.2599 54.1137L19.7645 48.0414L22.3105 48.0198V46.5986H12.1694V46.6417ZM57.3728 46.6417V48.0629H59.7246L64.2989 56.6331H69.9304L74.5047 48.0414L76.8566 48.0198V46.6202H69.8442V48.0198H71.6997L68.4632 54.1137L64.9678 48.0414L67.5139 48.0198V46.5986H57.3728V46.6417ZM45.8292 46.6417V48.0629H48.1811V55.0612H45.7213V56.6331L48.1811 56.6547H59.8757V52.0035H58.3437C58.2574 54.4583 56.1213 55.0827 55.2151 55.0827C54.3952 55.0827 52.7769 55.0827 52.7769 55.0827V48.0844L55.0856 48.0629V46.6417H45.8292ZM37.9537 46.3402C33.9836 46.3402 30.747 48.7089 30.747 51.6159C30.747 54.5229 33.9836 56.8915 37.9537 56.8915C41.9238 56.8915 45.1603 54.5229 45.1603 51.6159C45.1603 48.7089 41.9454 46.3402 37.9537 46.3402ZM37.8458 55.3627C36.4433 55.3627 35.2997 53.6831 35.2997 51.6159C35.2997 49.5487 36.4433 47.8691 37.8458 47.8691C39.2483 47.8691 40.3919 49.5487 40.3919 51.6159C40.3919 53.6831 39.2483 55.3627 37.8458 55.3627ZM83.157 46.168C79.1869 46.168 75.9504 48.5797 75.9504 51.5298C75.9504 54.5013 79.1869 56.8915 83.157 56.8915C87.1271 56.8915 90.3637 54.4798 90.3637 51.5298C90.3637 48.5797 87.1487 46.168 83.157 46.168ZM83.0491 55.3196C81.6466 55.3196 80.5031 53.6185 80.5031 51.5082C80.5031 49.398 81.6466 47.6968 83.0491 47.6968C84.4516 47.6968 85.5952 49.398 85.5952 51.5082C85.5952 53.6185 84.4516 55.3196 83.0491 55.3196Z" fill="#1D1D1B"/>
<path d="M78.0647 2.62695V3.70362C81.3012 5.38321 84.3651 7.40734 87.1485 9.73293L79.7261 17.1404C82.5095 19.3368 85.0124 21.8562 87.1917 24.634L94.5925 17.248C96.8797 20.0689 98.8647 23.1482 100.505 26.3997H101.885V2.62695H78.0647Z" fill="#1D1D1B"/>
<path fill-rule="evenodd" clip-rule="evenodd" d="M95.0025 22.7176L89.4573 27.821C93.9668 34.7762 96.5992 43.0665 96.5992 51.9813C96.5992 76.5292 76.6622 96.4259 52.0647 96.4259C27.4672 96.4259 7.53029 76.5292 7.53029 51.9813C7.53029 27.4334 27.4672 7.53664 52.0647 7.53664C61.0191 7.53664 69.3693 10.1852 76.3602 14.7288L81.9485 9.47464C73.4473 3.48839 63.1336 0 52 0C23.2813 0 0 23.2344 0 51.8952C0 80.5559 23.2813 103.79 52 103.79C80.7187 103.79 104 80.5559 104 51.8952C104 41.0639 100.677 31.0294 95.0025 22.7176Z" fill="#1D1D1B"/>
</svg>
